PathFileType	4	(X/Y/Z)	C:/Users/opensim2020/Desktop/walking_exp_matlab/subject02_walking09_straight_04.trc																																																																																																																												
DataRate	CameraRate	NumFrames	NumMarkers	Units	OrigDataRate	OrigDataStartFrame	OrigNumFrames																																																																																																																								
100	100	4	42	mm	100	3007	285																																																																																																																								
Frame#	Time	LFHD			RFHD			LBHD			RBHD			C7			T10			CLAV			STRN			RBAK			LSHO			LUPA			LELB			LFRM			LWRA			LWRB			LFIN			RSHO			RUPA			RELB			RFRM			RWRA			RWRB			RFIN			LASI			RASI			LPSI			RPSI			LTHI			LKNE			LTIB			LANK			LHEE			LTOE			RTHI			RKNE			RTIB			RANK			RHEE			RTOE			*39			*40			*41		
		X1	Y1	Z1	X2	Y2	Z2	X3	Y3	Z3	X4	Y4	Z4	X5	Y5	Z5	X6	Y6	Z6	X7	Y7	Z7	X8	Y8	Z8	X9	Y9	Z9	X10	Y10	Z10	X11	Y11	Z11	X12	Y12	Z12	X13	Y13	Z13	X14	Y14	Z14	X15	Y15	Z15	X16	Y16	Z16	X17	Y17	Z17	X18	Y18	Z18	X19	Y19	Z19	X20	Y20	Z20	X21	Y21	Z21	X22	Y22	Z22	X23	Y23	Z23	X24	Y24	Z24	X25	Y25	Z25	X26	Y26	Z26	X27	Y27	Z27	X28	Y28	Z28	X29	Y29	Z29	X30	Y30	Z30	X31	Y31	Z31	X32	Y32	Z32	X33	Y33	Z33	X34	Y34	Z34	X35	Y35	Z35	X36	Y36	Z36	X37	Y37	Z37	X38	Y38	Z38	X39	Y39	Z39	X40	Y40	Z40	X41	Y41	Z41	X42	Y42	Z42
																																																																																																																															
1	0	-993.12341	1730.22168	-1444.71252	-1014.61176	1702.17456	-1305.10034	-1124.77771	1663.31641	-1475.93701	-1157.51538	1635.21741	-1339.26538	-1193.69409	1516.4729	-1407.66321	-1248.31763	1241.01355	-1399.05786	-1054.83081	1448.07458	-1424.49036	-1003.03619	1275.93079	-1423.4718	-1252.00879	1340.21545	-1345.17493	-1127.31616	1496.48755	-1589.39587	-1106.87195	1308.62988	-1694.79565	-1070.04053	1177.22498	-1732.9314	-1006.85126	1062.1189	-1758.60095	-903.12604	972.39417	-1740.55347	-947.22833	956.51904	-1772.73096	-900.53796	912.60004	-1786.85754	-1111.0105	1475.77234	-1224.74805	-1155.16541	1285.04529	-1149.03625	-1156.9292	1136.9635	-1142.94653	-1139.85217	1017.2453	-1129.91772	-1103.59265	888.06696	-1154.49536	-1151.26794	887.44	-1123.53271	-1119.65698	821.43164	-1123.72168	-1041.3761	974.68103	-1556.83606	-1004.52148	967.63696	-1303.8855	-1236.72754	1024.22168	-1444.33801	-1226.21509	1023.06989	-1330.13794	-1169.46753	672.68152	-1583.07581	-1241.58081	482.43652	-1542.41077	-1340.90723	313.93271	-1523.91077	-1380.8634	93.3051	-1482.76831	-1408.10364	70.27586	-1424.11511	-1238.17542	38.44861	-1531.5387	-1014.85059	670.99445	-1216.87341	-946.44788	476.26105	-1261.52637	-919.06256	292.79764	-1248.50659	-865.00122	105.62502	-1277.79163	-880.15277	45.22107	-1334.00635	-702.07959	90.79601	-1273.29346	-1103.20386	1795.05322	-1364.15503	-2845.22681	1034.11926	3360.29468	NaN	NaN	NaN
2	0.01	-985.69177	1730.12183	-1443.80908	-1007.39374	1701.97522	-1304.44922	-1116.88806	1662.52417	-1475.3877	-1149.64734	1634.07825	-1338.65503	-1185.35608	1515.60986	-1407.08215	-1239.97888	1240.44873	-1398.43469	-1046.47778	1447.30774	-1423.99292	-994.58594	1275.14478	-1423.05347	-1243.43384	1339.44849	-1344.37415	-1119.06079	1495.67163	-1588.86963	-1099.2644	1307.02441	-1693.245	-1063.70569	1175.42065	-1731.1449	-1001.42487	1059.44543	-1756.26563	-898.68713	969.16016	-1738.60034	-942.8927	953.61584	-1770.59802	-896.61725	909.24261	-1784.75476	-1102.30103	1474.76794	-1223.96106	-1146.74377	1284.02979	-1148.97363	-1148.50671	1135.84082	-1143.34595	-1131.53992	1016.12823	-1130.75269	-1095.60754	886.86597	-1155.09265	-1143.15796	886.34985	-1124.34888	-1111.93445	820.23645	-1124.72241	-1033.71753	973.74664	-1556.49023	-995.70978	966.68536	-1303.47717	-1228.44214	1023.38934	-1443.41101	-1218.00964	1022.50006	-1329.32031	-1162.88428	672.60309	-1583.2854	-1235.50098	482.30521	-1542.64478	-1336.97388	315.04877	-1524.42175	-1380.15393	95.10411	-1483.38696	-1407.86316	72.72044	-1424.8075	-1238.15063	38.40628	-1531.72437	-1003.49768	671.15302	-1216.40735	-937.19281	475.74799	-1261.86157	-912.70361	291.52258	-1249.7876	-861.74152	103.48703	-1279.86694	-876.54517	43.47065	-1336.46924	-698.99078	86.4088	-1273.76636	-1096.28845	1794.31177	-1363.49512	-2845.1001	1034.18311	3360.33057	NaN	NaN	NaN
3	0.02	-978.33197	1730.19006	-1443.00012	-1000.0498	1701.66772	-1303.5415	-1109.00989	1661.81006	-1474.68298	-1141.81519	1633.03699	-1338.04175	-1176.95947	1514.83643	-1406.38208	-1231.38147	1239.73938	-1397.51794	-1037.94287	1446.70044	-1423.51807	-986.03351	1274.70178	-1423.00195	-1234.52368	1338.66052	-1343.33191	-1110.78259	1494.82446	-1588.28125	-1092.25854	1305.86584	-1692.26123	-1057.55383	1173.59363	-1729.18372	-996.55597	1057.10559	-1754.19019	-894.362	966.07623	-1736.63513	-938.88287	950.5658	-1768.14758	-893.12805	905.69928	-1782.25378	-1093.74756	1474.078	-1223.51843	-1137.69897	1283.04041	-1148.59631	-1139.9447	1135.00659	-1143.56885	-1122.87817	1014.97052	-1130.84497	-1087.23022	885.54022	-1155.86023	-1134.75549	885.33649	-1124.9613	-1103.5907	819.13861	-1125.43188	-1025.48645	972.78766	-1555.73169	-986.60876	965.90839	-1302.94385	-1219.92249	1022.54822	-1442.46155	-1209.50354	1021.82819	-1328.38281	-1155.81287	672.17181	-1583.13367	-1229.14075	482.24408	-1542.93176	-1332.74927	316.36148	-1524.93787	-1379.27759	96.97161	-1484.00464	-1407.47607	75.42039	-1425.72314	-1238.08911	38.39107	-1531.96301	-991.91644	671.41364	-1216.09705	-928.32092	474.8739	-1261.97913	-906.77551	289.9548	-1250.84302	-859.04834	101.7257	-1282.01941	-874.39795	42.30256	-1339.04419	-696.78546	81.69803	-1274.33826	-1089.34399	1793.52161	-1362.58118	-2845.10693	1034.27063	3360.20532	NaN	NaN	NaN
4	0.03	-970.86603	1730.24097	-1441.91138	-992.19543	1701.45996	-1302.46082	-1101.11841	1661.08203	-1473.88293	-1133.99341	1632.02051	-1337.37292	-1168.45117	1514.10999	-1405.55798	-1222.67871	1239.00745	-1396.62036	-1029.31531	1445.99414	-1422.66174	-977.3277	1274.11304	-1422.44714	-1225.22327	1337.72241	-1341.99756	-1102.65662	1494.27026	-1587.90576	-1084.87134	1304.29175	-1690.47485	-1051.5636	1171.60107	-1726.84534	-991.83929	1054.54358	-1751.70911	-890.45288	962.50214	-1734.00098	-935.38586	947.52454	-1765.4657	-890.09515	902.05115	-1779.51306	-1084.70984	1473.21326	-1222.59216	-1128.57898	1282.10791	-1148.14612	-1130.93164	1133.89905	-1143.6499	-1114.34033	1013.94904	-1131.23035	-1078.43262	884.65594	-1156.61377	-1126.14722	884.36194	-1125.26929	-1095.2124	818.01929	-1126.05176	-1017.03638	971.82703	-1554.8866	-977.33966	965.45428	-1302.27087	-1211.26721	1021.67023	-1441.38147	-1200.50586	1020.95941	-1327.41907	-1148.40125	671.70844	-1582.72498	-1222.26404	482.08392	-1543.06714	-1328.3092	317.83298	-1525.45093	-1378.40918	99.20804	-1484.74243	-1406.77576	78.06836	-1426.31775	-1238.05933	38.36865	-1532.21753	-980.2984	671.49701	-1215.68445	-919.93243	473.97321	-1261.89917	-901.6485	288.2717	-1251.94141	-857.12787	99.58667	-1284.08167	-873.0061	40.69876	-1341.7533	-695.4978	76.57128	-1274.66125	-1082.38074	1792.8269	-1361.62732	-2845.12085	1034.18494	3360.25952	NaN	NaN	NaN
